# Blender v2.76 (sub 0) OBJ File: ''
# www.blender.org
mtllib person.mtl
o Cube
v 0.334498 -1.000000 1.000000
v -1.000000 -1.000000 1.000000
v 0.334497 2.686248 1.000001
v -1.000000 2.686248 1.000000
v 0.334498 -1.000000 0.000000
v -1.000000 -1.000000 -0.000000
v 0.334498 2.686248 0.000001
v -1.000000 2.686248 -0.000000
v 0.334497 1.825024 1.000000
v -1.000000 1.825024 1.000000
v -1.000000 1.825024 -0.000000
v 0.334498 1.825024 0.000000
v 0.334496 2.686248 2.187225
v -1.000001 2.686248 2.187224
v 0.334497 1.825024 2.187225
v -1.000001 1.825024 2.187224
v -1.000001 1.825024 1.628210
v 0.334497 1.825024 1.648728
v 0.334497 -0.411684 2.187225
v -1.000001 -0.411684 2.187224
v -1.000001 -0.411684 1.628210
v 0.334497 -0.411684 1.648728
v 0.334498 -1.832737 1.217058
v -1.000000 -1.832737 1.217057
v 0.334498 -1.832737 0.217058
v -1.000000 -1.832737 0.217057
v 0.334498 -4.444809 1.217058
v -1.000000 -4.444809 1.217057
v 0.334498 -4.444809 0.217058
v -1.000000 -4.444809 0.217057
v 0.334497 2.686248 0.228804
v -1.000000 2.686248 0.226688
v 0.334498 3.515246 0.000001
v -1.000000 3.515246 -0.000000
v 0.334497 3.515246 0.228804
v -1.000000 3.515246 0.226688
v 0.334498 3.937027 0.000001
v -1.000000 3.937027 -0.000000
v 0.334497 3.830657 1.183349
v -1.000000 3.830657 1.181233
v 0.334419 5.044299 0.003159
v -1.000079 5.044299 0.003158
v 0.334418 4.937929 1.213176
v -1.000079 4.937929 1.211061
v 0.334498 -1.000000 -1.000000
v -1.000000 -1.000000 -1.000000
v 0.334497 2.686248 -1.000001
v -1.000000 2.686248 -1.000000
v 0.334498 -1.000000 -0.000000
v -1.000000 -1.000000 0.000000
v 0.334498 2.686248 -0.000001
v -1.000000 2.686248 0.000000
v 0.334497 1.825024 -1.000000
v -1.000000 1.825024 -1.000000
v -1.000000 1.825024 0.000000
v 0.334498 1.825024 -0.000000
v 0.334496 2.686248 -2.187225
v -1.000001 2.686248 -2.187224
v 0.334497 1.825024 -2.187225
v -1.000001 1.825024 -2.187224
v -1.000001 1.825024 -1.628210
v 0.334497 1.825024 -1.648728
v 0.334497 -0.411684 -2.187225
v -1.000001 -0.411684 -2.187224
v -1.000001 -0.411684 -1.628210
v 0.334497 -0.411684 -1.648728
v 0.334498 -1.832737 -1.217058
v -1.000000 -1.832737 -1.217057
v 0.334498 -1.832737 -0.217058
v -1.000000 -1.832737 -0.217057
v 0.334498 -4.444809 -1.217058
v -1.000000 -4.444809 -1.217057
v 0.334498 -4.444809 -0.217058
v -1.000000 -4.444809 -0.217057
v 0.334497 2.686248 -0.228804
v -1.000000 2.686248 -0.226688
v 0.334498 3.515246 -0.000001
v -1.000000 3.515246 0.000000
v 0.334497 3.515246 -0.228804
v -1.000000 3.515246 -0.226688
v 0.334498 3.937027 -0.000001
v -1.000000 3.937027 0.000000
v 0.334497 3.830657 -1.183349
v -1.000000 3.830657 -1.181233
v 0.334419 5.044299 -0.003159
v -1.000079 5.044299 -0.003158
v 0.334418 4.937929 -1.213176
v -1.000079 4.937929 -1.211061
vt 0.292737 0.408907
vt 0.295288 0.319329
vt 0.325724 0.299291
vt 0.851957 0.879585
vt 0.637834 0.939248
vt 0.635285 0.838105
vt 0.726244 0.787361
vt 0.704581 0.650517
vt 0.629100 0.759773
vt 0.644586 0.760968
vt 0.649220 0.769012
vt 0.668772 0.979960
vt 0.405181 0.979960
vt 0.525908 0.769856
vt 0.000099 0.306455
vt 0.999901 0.632139
vt 0.399388 0.310282
vt 0.662116 0.763625
vt 0.655826 0.755387
vt 0.647066 0.756673
vt 0.646665 0.756697
vt 0.661061 0.739996
vt 0.646647 0.756979
vt 0.645788 0.756989
vt 0.315508 0.262903
vt 0.299974 0.297224
vt 0.299316 0.297708
vt 0.254483 0.302803
vt 0.404739 0.000099
vt 0.299593 0.296794
vt 0.297791 0.294874
vt 0.722815 0.960242
vt 0.739539 0.946336
vt 0.726705 0.946288
vt 0.728528 0.955723
vt 0.722067 0.956418
vt 0.709747 0.961570
vt 0.912586 0.927230
vt 0.730273 0.963128
vt 0.729110 0.959978
vt 0.727898 0.957441
vt 0.727803 0.958201
vt 0.728711 0.961787
vt 0.728171 0.960004
vn -0.000000 0.252200 0.967700
vn 0.000000 1.000000 0.000000
vn 1.000000 0.000000 0.000000
vn -1.000000 0.000000 -0.000000
vn -0.000000 0.000000 1.000000
vn 0.000000 -1.000000 0.000000
vn 0.015400 0.000000 -0.999900
vn 0.000000 0.000000 -1.000000
vn 0.000000 -0.252200 -0.967700
vn -0.001600 0.000000 1.000000
vn 1.000000 0.000100 0.000000
vn -0.000500 -0.949500 0.313700
vn -0.000000 0.996100 0.087700
vn -1.000000 -0.000100 -0.000000
vn -0.001600 -0.026900 0.999600
vn 0.000000 0.002900 -1.000000
vn -0.000000 0.252200 -0.967700
vn 0.015400 0.000000 0.999900
vn 0.000000 -0.252200 0.967700
vn -0.001600 0.000000 -1.000000
vn -0.000500 -0.949500 -0.313700
vn -0.000100 0.996200 -0.087600
vn -0.001600 -0.026900 -0.999600
vn 0.000000 0.002900 1.000000
vn -0.000100 0.996200 0.087600
vn -0.000000 0.996100 -0.087700
usemtl Material
s off
f 2/1/1 24/2/1 23/3/1
f 31/4/2 32/5/2 4/6/2
f 31/4/3 3/7/3 9/8/3
f 17/9/4 16/10/4 14/11/4
f 32/5/4 8/12/4 11/13/4
f 10/14/4 11/13/4 6/15/4
f 9/8/5 10/14/5 2/1/5
f 12/16/3 9/8/3 1/17/3
f 13/18/5 14/11/5 16/10/5
f 15/19/3 19/20/3 22/21/3
f 13/18/3 15/19/3 18/22/3
f 3/7/2 4/6/2 14/11/2
f 9/8/6 18/22/6 17/9/6
f 22/21/6 19/20/6 20/23/6
f 17/9/4 21/24/4 20/23/4
f 16/10/5 20/23/5 19/20/5
f 18/22/7 22/21/7 21/24/7
f 25/25/8 29/26/8 30/27/8
f 2/1/4 6/15/4 26/28/4
f 1/17/3 23/3/3 25/25/3
f 5/29/9 25/25/9 26/28/9
f 27/30/6 28/31/6 30/27/6
f 24/2/5 28/31/5 27/30/5
f 26/28/4 30/27/4 28/31/4
f 23/3/3 27/30/3 29/26/3
f 31/4/10 35/32/10 36/33/10
f 34/34/8 38/35/8 37/36/8
f 8/12/8 34/34/8 33/37/8
f 7/38/3 33/37/3 35/32/3
f 32/5/4 36/33/4 34/34/4
f 37/36/11 41/39/11 43/40/11
f 35/32/3 33/37/3 37/36/3
f 36/33/4 40/41/4 38/35/4
f 35/32/12 39/42/12 40/41/12
f 41/39/13 42/43/13 44/44/13
f 38/35/14 40/41/14 44/44/14
f 40/41/15 39/42/15 43/40/15
f 38/35/16 42/43/16 41/39/16
f 45/17/17 67/3/17 68/2/17
f 75/4/2 47/7/2 48/6/2
f 53/8/3 75/4/3 56/16/3
f 58/11/4 61/9/4 48/6/4
f 55/13/4 76/5/4 54/14/4
f 50/15/4 55/13/4 54/14/4
f 46/1/8 54/14/8 53/8/8
f 45/17/3 53/8/3 56/16/3
f 60/10/8 58/11/8 57/18/8
f 66/21/3 63/20/3 59/19/3
f 62/22/3 57/18/3 47/7/3
f 47/7/2 57/18/2 58/11/2
f 61/9/6 62/22/6 53/8/6
f 64/23/6 63/20/6 66/21/6
f 64/23/4 65/24/4 61/9/4
f 63/20/8 64/23/8 60/10/8
f 65/24/18 66/21/18 62/22/18
f 74/27/5 73/26/5 69/25/5
f 46/1/4 68/2/4 70/28/4
f 69/25/3 67/3/3 45/17/3
f 70/28/19 69/25/19 49/29/19
f 73/26/6 74/27/6 72/31/6
f 71/30/8 72/31/8 68/2/8
f 72/31/4 74/27/4 70/28/4
f 73/26/3 71/30/3 67/3/3
f 80/33/20 79/32/20 75/4/20
f 81/36/5 82/35/5 78/34/5
f 77/37/5 78/34/5 52/12/5
f 79/32/3 77/37/3 51/38/3
f 78/34/4 80/33/4 76/5/4
f 87/40/11 85/39/11 81/36/11
f 79/32/3 83/42/3 81/36/3
f 82/35/4 84/41/4 80/33/4
f 84/41/21 83/42/21 79/32/21
f 85/39/22 87/40/22 88/44/22
f 82/35/14 86/43/14 88/44/14
f 84/41/23 88/44/23 87/40/23
f 85/39/24 86/43/24 82/35/24
f 1/17/1 2/1/1 23/3/1
f 3/7/2 31/4/2 4/6/2
f 9/8/3 12/16/3 31/4/3
f 7/38/3 31/4/3 12/16/3
f 14/11/4 4/6/4 17/9/4
f 10/14/4 17/9/4 4/6/4
f 11/13/4 10/14/4 32/5/4
f 4/6/4 32/5/4 10/14/4
f 2/1/4 10/14/4 6/15/4
f 1/17/5 9/8/5 2/1/5
f 5/29/3 12/16/3 1/17/3
f 15/19/5 13/18/5 16/10/5
f 18/22/3 15/19/3 22/21/3
f 18/22/3 9/8/3 3/7/3
f 3/7/3 13/18/3 18/22/3
f 13/18/2 3/7/2 14/11/2
f 10/14/6 9/8/6 17/9/6
f 21/24/6 22/21/6 20/23/6
f 16/10/4 17/9/4 20/23/4
f 15/19/5 16/10/5 19/20/5
f 17/9/7 18/22/7 21/24/7
f 26/28/8 25/25/8 30/27/8
f 24/2/4 2/1/4 26/28/4
f 5/29/3 1/17/3 25/25/3
f 6/15/9 5/29/9 26/28/9
f 29/26/6 27/30/6 30/27/6
f 23/3/5 24/2/5 27/30/5
f 24/2/4 26/28/4 28/31/4
f 25/25/3 23/3/3 29/26/3
f 32/5/10 31/4/10 36/33/10
f 33/37/8 34/34/8 37/36/8
f 7/38/8 8/12/8 33/37/8
f 31/4/3 7/38/3 35/32/3
f 8/12/4 32/5/4 34/34/4
f 39/42/11 37/36/11 43/40/11
f 39/42/3 35/32/3 37/36/3
f 34/34/4 36/33/4 38/35/4
f 36/33/12 35/32/12 40/41/12
f 43/40/25 41/39/25 44/44/25
f 42/43/14 38/35/14 44/44/14
f 44/44/15 40/41/15 43/40/15
f 37/36/16 38/35/16 41/39/16
f 46/1/17 45/17/17 68/2/17
f 76/5/2 75/4/2 48/6/2
f 51/38/3 56/16/3 75/4/3
f 53/8/3 47/7/3 75/4/3
f 54/14/4 48/6/4 61/9/4
f 58/11/4 60/10/4 61/9/4
f 48/6/4 54/14/4 76/5/4
f 55/13/4 52/12/4 76/5/4
f 46/1/4 50/15/4 54/14/4
f 45/17/8 46/1/8 53/8/8
f 49/29/3 45/17/3 56/16/3
f 59/19/8 60/10/8 57/18/8
f 62/22/3 66/21/3 59/19/3
f 47/7/3 53/8/3 62/22/3
f 62/22/3 59/19/3 57/18/3
f 48/6/2 47/7/2 58/11/2
f 54/14/6 61/9/6 53/8/6
f 65/24/6 64/23/6 66/21/6
f 60/10/4 64/23/4 61/9/4
f 59/19/8 63/20/8 60/10/8
f 61/9/18 65/24/18 62/22/18
f 70/28/5 74/27/5 69/25/5
f 50/15/4 46/1/4 70/28/4
f 49/29/3 69/25/3 45/17/3
f 50/15/19 70/28/19 49/29/19
f 71/30/6 73/26/6 72/31/6
f 67/3/8 71/30/8 68/2/8
f 68/2/4 72/31/4 70/28/4
f 69/25/3 73/26/3 67/3/3
f 76/5/20 80/33/20 75/4/20
f 77/37/5 81/36/5 78/34/5
f 51/38/5 77/37/5 52/12/5
f 75/4/3 79/32/3 51/38/3
f 52/12/4 78/34/4 76/5/4
f 83/42/11 87/40/11 81/36/11
f 77/37/3 79/32/3 81/36/3
f 78/34/4 82/35/4 80/33/4
f 80/33/21 84/41/21 79/32/21
f 86/43/26 85/39/26 88/44/26
f 84/41/14 82/35/14 88/44/14
f 83/42/23 84/41/23 87/40/23
f 81/36/24 85/39/24 82/35/24
